# xmcd
#
# Track frame offsets: 
#        150
#        21516
#        38203
#        57610
#        79579
#        101239
#        121708
#        144664
#        166654
#        185545
#        207148
#
# Disc length: 2964 seconds
#
# Revision: 1
# Processed by: cddbd v1.5.2PL0 Copyright (c) Steve Scherf et al.
# Submitted via: ExactAudioCopyFreeDBPlugin 1.0
#
DISCID=950b920b
DTITLE=群星 - DTS51映像黄山
DYEAR=2010
DGENRE=DTS
TTITLE0=船歌
TTITLE1=小城故事
TTITLE2=把根留住
TTITLE3=雪绒花
TTITLE4=你那里下雪了吗 (极美人声）
TTITLE5=女人花
TTITLE6=如果云知道
TTITLE7=我只愿为你守着约
TTITLE8=行走黄山
TTITLE9=映山红
TTITLE10=映像·黄山
EXTD=
EXTT0=
EXTT1=
EXTT2=
EXTT3=
EXTT4=
EXTT5=
EXTT6=
EXTT7=
EXTT8=
EXTT9=
EXTT10=
PLAYORDER=
